<svg xmlns="http://www.w3.org/2000/svg" width="486.788" height="462.434" viewBox="0 0 486.788 462.434"><path d="M521.724,2853.36c31.685-6.359,57.931-32.555,83.054-56.271,12.479-12.068,24.6-23.449,36.474-32.628s23.5-16.16,35.024-19.46c22.94-7.074,45.465.575,66.222,23.368,20.649,22.3,39.541,59.842,52.806,101.777,13.368,40.321,19.96,86.078,19.426,119.934-.471,34.728-8.067,57.555-21.612,72.264-27.073,28.8-77.807,29.414-137.713,84.2-29.813,23.671-58.944,48.188-82.928,55.416-24.29,8.14-43.434-1.007-60.345-23.606-17.107-22.243-33.605-55.432-56.535-87.948-11.357-16.367-24.2-32.719-38.025-48.921-6.9-8.112-14.014-16.21-21.161-24.372q-5.359-6.122-10.708-12.312T375.14,2992.3q-1.274-1.54-2.529-3.079t-2.487-3.076q-2.464-3.075-4.832-6.145-4.731-6.139-9.005-12.254a207.5,207.5,0,0,1-14.721-24.265c-8.189-15.975-12.654-31.588-13.444-45.225-1.62-27.786,9.984-46.723,27.77-52.587q.839-.3,1.7-.572t1.743-.5q1.764-.468,3.612-.8a59.139,59.139,0,0,1,7.712-.854,103.324,103.324,0,0,1,17.266.818c12.283,1.492,26.086,4.617,40.907,8.037,29.581,6.361,62.817,14.056,92.891,1.569Z" transform="translate(-327.972 -2742.457)" fill="blue" opacity="0.071"/></svg>