<svg xmlns="http://www.w3.org/2000/svg" xmlns:xlink="http://www.w3.org/1999/xlink" width="263" height="492" viewBox="0 0 263 492"><defs><style>.a{fill:#fff;stroke:#e9e9e9;stroke-linejoin:round;}.b{clip-path:url(#a);}.c{font-size:15px;font-family:SegoeUI, Segoe UI;}.d{fill:#eaeaea;}.e{fill:#f2f2f2;}</style><clipPath id="a"><rect class="a" width="263" height="492" transform="translate(388 5465)"/></clipPath></defs><g class="b" transform="translate(-388 -5465)"><path class="e" d="M489.756,5495.272a55.364,55.364,0,1,1-55.508,55.364l-.248-7.909C434,5481.574,483.7,5432,545.017,5432v31.636a78.883,78.883,0,0,0-56.072,23.165,80.357,80.357,0,0,0-7.888,9.15A56.073,56.073,0,0,1,489.756,5495.272Zm142.736,0a55.364,55.364,0,1,1-55.508,55.364l-.248-7.909c0-61.153,49.7-110.727,111.017-110.727v31.636a78.881,78.881,0,0,0-56.072,23.165,80.287,80.287,0,0,0-7.888,9.15A56.079,56.079,0,0,1,632.492,5495.272Z"/></g></svg>