<svg xmlns="http://www.w3.org/2000/svg" xmlns:xlink="http://www.w3.org/1999/xlink" width="456.777" height="405.045" viewBox="0 0 456.777 405.045"><defs><linearGradient id="a" x1="0.825" y1="0.5" x2="0.175" y2="0.5" gradientUnits="objectBoundingBox"><stop offset="0" stop-color="#009eff"/><stop offset="1" stop-color="#511de5"/></linearGradient></defs><path d="M564.2,2838.342c32.128,3.484,65.049-13.585,96.15-28.627,15.535-7.747,30.524-14.946,44.611-20.121s27.279-8.326,39.26-8c24.005.167,43.178,14.248,56.1,42.238,12.97,27.483,19.67,68.976,19.681,112.959.6,42.475-6.907,88.091-17.619,120.212-10.914,32.971-25.036,52.448-42.384,62.392-34.495,19.307-83.054,4.6-156.685,38.79-35.56,13.587-70.725,28.185-95.772,27.85-25.614.442-41.112-14.048-50.427-40.693-9.609-26.365-15.339-62.982-27.4-100.9-5.9-19.029-13.217-38.491-21.515-58.106-4.132-9.814-8.478-19.679-12.833-29.616q-3.265-7.453-6.5-14.967c-2.146-5.011-4.259-10.045-6.3-15.11q-.751-1.853-1.483-3.7t-1.444-3.683q-1.423-3.675-2.756-7.315-2.661-7.28-4.894-14.4a207.488,207.488,0,0,1-6.725-27.573c-2.994-17.7-2.547-33.933.81-47.174,6.829-26.982,23.6-41.543,42.326-41.775q.892-.036,1.794-.033t1.813.047q1.823.086,3.686.324a59.156,59.156,0,0,1,7.611,1.509,103.345,103.345,0,0,1,16.217,5.984c11.263,5.123,23.481,12.263,36.583,19.99,26.289,14.979,55.661,32.332,88.1,29.488Z" transform="translate(-363.256 -2780.999)" fill="url(#a)"/></svg>